# xmcd CD database file
#
# Track frame offsets:
#	150
#	23385
#	41927
#	65810
#	83050
#	101545
#	125127
#	128037
#	149142
#	166077
#
# Disc length: 2531 seconds
#
# Revision: 0
# Processed by: cddbd v1.5.1PL0 Copyright (c) Steve Scherf et al.
# Submitted via: CDex 1.51
#
DISCID=8c09e10a
DTITLE=Leena Conquest - Come Fly Away
DYEAR=1999
DGENRE=Jazz
TTITLE0=Come Fly Away
TTITLE1=Dance With Me Tonight
TTITLE2=The Breeze
TTITLE3=Destination
TTITLE4=Break The Chain (C'est La Vie)
TTITLE5=merry Go Round
TTITLE6=Damballah interlude
TTITLE7=Bread Alone
TTITLE8=Night Song
TTITLE9=Poem For A Lady
EXTD=YEAR: 1999
EXTT0=
EXTT1=
EXTT2=
EXTT3=
EXTT4=
EXTT5=
EXTT6=
EXTT7=
EXTT8=
EXTT9=
PLAYORDER=
